<svg width="40" height="40" viewBox="0 0 40 40" fill="none" xmlns="http://www.w3.org/2000/svg">
<path d="M20 0C8.96911 0 0 8.96912 0 20C0 31.0309 8.96911 40 20 40C31.0309 40 40 31.0309 40 20C40 8.96912 31.0309 0 20 0ZM25.9629 10.751C26.1301 10.746 26.2965 10.7747 26.4524 10.8352C26.6083 10.8957 26.7505 10.9869 26.8705 11.1034C26.9905 11.2199 27.0859 11.3592 27.1511 11.5132C27.2163 11.6672 27.2499 11.8328 27.25 12V28C27.25 28.213 27.1955 28.4225 27.0917 28.6085C26.988 28.7946 26.8385 28.951 26.6573 29.063C26.4761 29.175 26.2693 29.2389 26.0565 29.2486C25.8437 29.2582 25.632 29.2133 25.4414 29.1182L17.7051 25.25H14C13.6685 25.25 13.3506 25.1183 13.1162 24.8838C12.8817 24.6494 12.75 24.3315 12.75 24V16C12.75 15.6685 12.8817 15.3506 13.1162 15.1162C13.3506 14.8817 13.6685 14.75 14 14.75H17.7051L25.4414 10.8818C25.6037 10.8009 25.7816 10.7563 25.9629 10.751Z" fill="black"/>
</svg>
